<?xml version="1.0" encoding="utf-8"?>
<!-- Svg Vector Icons : http://www.sfont.cn -->
<!DOCTYPE svg PUBLIC "-//W3C//DTD SVG 1.1//EN" "http://www.w3.org/Graphics/SVG/1.1/DTD/svg11.dtd">
<svg version="1.1" xmlns="http://www.w3.org/2000/svg" xmlns:xlink="http://www.w3.org/1999/xlink" x="0px" y="0px" viewBox="0 0 1000 1000" enable-background="new 0 0 1000 1000" xml:space="preserve">
<metadata> Svg Vector Icons : http://www.sfont.cn </metadata>
<g><path d="M500,990C229.8,990,10,770.2,10,500C10,229.8,229.8,10,500,10c270.2,0,490,219.8,490,490C990,770.2,770.2,990,500,990z M500,43.6C248.3,43.6,43.6,248.3,43.6,500c0,251.7,204.7,456.4,456.4,456.4c251.6,0,456.4-204.7,456.4-456.4C956.4,248.3,751.7,43.6,500,43.6L500,43.6z"/><path d="M500,990c-119.2,0-234.1-43.4-323.6-122.2L164,856.9l10.6-12.6c31.4-37.3,87-68.3,156.4-87.4c24.9-9.9,36.8-16.5,45.8-25.5c9.6-9.6,14.9-18.6,16.7-28.4c1.2-6.8,0.9-42.6-0.1-74.4c-17.2-19.5-32.2-48.6-46.6-90.5c-14.8-7.7-28-26.7-32-47.6c-4.2-22.4-1.8-41.2,6.1-52.5c-18.3-107.6-6.4-187.6,35.4-237.6c32.6-39.1,82.4-58.9,148.3-58.9l5.9-0.1c54.8,0,67.4,11.5,79.2,27.6c2.3,3.1,4.1,5.6,6.9,7.9c30.3,0,55.4,12.2,72.7,35.1c32.9,43.5,36.8,126.8,11,224.3c9.1,11.1,11.6,31.3,6.3,55.3c-5,22.2-20.7,42.2-36.5,48.3c-11.7,38.4-23.6,67.5-42.4,89.4v70.1c2.1,15.5,8,21.2,18.6,31.6l7.1,7.1c6.7,5.4,12.6,8.2,39.1,19.9c66.5,18.4,121.5,49.3,152.7,86.3l10.6,12.6l-12.3,10.9C734.1,946.6,619.2,990,500,990L500,990z M211.9,853.9c81.3,66.2,182.9,102.5,288.1,102.5s206.8-36.3,288.1-102.5c-28.3-26.6-72.4-49-126.7-64.2c-29.5-12.8-38.7-17.1-50.6-26.8l-7.8-7.6c-12.4-12-25.1-24.4-28.8-53.6l-0.1-85.5l4.7-4.9c18.6-19.4,30.4-50.8,42.4-92.1L628,496l13.7,10.2c4.1-3.8,9.9-11.5,12.1-21.7c2.8-12.4,2.1-21.3,1-25.3l-12.8-4.1l2.7-16.1c26-91.1,25.1-170.3-2.3-206.6c-11-14.6-26.1-21.8-46.1-21.8l-9.1,0.4l-4.3-2.6c-11-6.5-16.5-14-20.4-19.4c-5.7-7.8-10.2-13.9-52.1-13.9l-5.6,0c-55.6,0-96.8,15.8-122.7,46.9c-36.2,43.5-45.1,117.2-26.5,219.1l3.1,16.8l-11.2,1.8c-1.1,4.2-1.8,12.8,0.4,24.6c2.6,13.5,11.6,23.1,14.6,24.4l12.6-0.5l1,11.6c14.8,44.8,29.4,73.5,45.9,90.2l4.6,4.6l0.2,6.6c0.6,17,2.3,73.6-0.2,87.9c-3.1,16.6-11.6,31.7-26,46.1c-14.2,14.3-31.7,22.8-58.9,33.5C285.2,804.5,240.4,827.1,211.9,853.9L211.9,853.9z"/></g>
</svg>