<?xml version="1.0" encoding="utf-8"?>
<!-- Svg Vector Icons : http://www.sfont.cn -->
<!DOCTYPE svg PUBLIC "-//W3C//DTD SVG 1.1//EN" "http://www.w3.org/Graphics/SVG/1.1/DTD/svg11.dtd">
<svg version="1.1" xmlns="http://www.w3.org/2000/svg" xmlns:xlink="http://www.w3.org/1999/xlink" x="0px" y="0px" viewBox="0 0 1000 1000" enable-background="new 0 0 1000 1000" xml:space="preserve">
<metadata> Svg Vector Icons : http://www.sfont.cn </metadata>
<g><path d="M974.7,209.1H25.3c-8.5,0-15.3-6.9-15.3-15.3s6.9-15.3,15.3-15.3h949.4c8.5,0,15.3,6.9,15.3,15.3S983.1,209.1,974.7,209.1z M974.7,515.3H25.3c-8.5,0-15.3-6.9-15.3-15.3c0-8.5,6.9-15.3,15.3-15.3h949.4c8.5,0,15.3,6.9,15.3,15.3C990,508.5,983.1,515.3,974.7,515.3z M974.7,821.6H25.3c-8.5,0-15.3-6.9-15.3-15.3s6.9-15.3,15.3-15.3h949.4c8.5,0,15.3,6.9,15.3,15.3S983.1,821.6,974.7,821.6z"/></g>
</svg>