<?xml version="1.0" encoding="utf-8"?>
<!-- Svg Vector Icons : http://www.sfont.cn -->
<!DOCTYPE svg PUBLIC "-//W3C//DTD SVG 1.1//EN" "http://www.w3.org/Graphics/SVG/1.1/DTD/svg11.dtd">
<svg version="1.1" xmlns="http://www.w3.org/2000/svg" xmlns:xlink="http://www.w3.org/1999/xlink" x="0px" y="0px" viewBox="0 0 1000 1000" enable-background="new 0 0 1000 1000" xml:space="preserve">
<metadata> Svg Vector Icons : http://www.sfont.cn </metadata>
<g><path d="M964.2,654.7c-14.3,0-25.8,11.5-25.8,25.8v128.9c0,28.5-23.1,51.6-51.6,51.6H113.1c-28.4,0-51.6-23.1-51.6-51.6v-619c0-28.4,23.1-51.6,51.6-51.6h283.7c14.3,0,25.8-11.6,25.8-25.8c0-14.2-11.5-25.8-25.8-25.8H113.1C56.3,87.4,10,133.7,10,190.5v619c0,56.9,46.3,103.2,103.1,103.2h773.7c56.9,0,103.1-46.3,103.1-103.2V680.5C990,666.3,978.5,654.7,964.2,654.7L964.2,654.7z M983.7,96.3c-1.1-1.3-2.4-2.5-3.8-3.6c-3.9-3-8.7-4.9-13.9-5.3c-0.7-0.1-1.3-0.1-2-0.1H603.2c-14.3,0-25.8,11.6-25.8,25.8s11.5,25.8,25.8,25.8h298.8L378.6,662.3c-10.1,10.1-10.1,26.4,0,36.5c5,5,11.6,7.6,18.2,7.6c6.6,0,13.2-2.5,18.2-7.6l523.4-523.4v298.8c0,14.3,11.5,25.8,25.8,25.8s25.8-11.5,25.8-25.8V113.2c0,0,0-0.1,0-0.1C990,106.7,987.6,100.8,983.7,96.3L983.7,96.3z"/></g>
</svg>