<?xml version="1.0" encoding="utf-8"?>
<!-- Svg Vector Icons : http://www.sfont.cn -->
<!DOCTYPE svg PUBLIC "-//W3C//DTD SVG 1.1//EN" "http://www.w3.org/Graphics/SVG/1.1/DTD/svg11.dtd">
<svg version="1.1" xmlns="http://www.w3.org/2000/svg" xmlns:xlink="http://www.w3.org/1999/xlink" x="0px" y="0px" viewBox="0 0 1000 1000" enable-background="new 0 0 1000 1000" xml:space="preserve">
<metadata> Svg Vector Icons : http://www.sfont.cn </metadata>
<g><g transform="translate(0.000000,511.000000) scale(0.100000,-0.100000)"><path d="M4195.9,4959.7c-47.7-47.7-50.3-82.9-50.3-708.6v-660.9l-243.7-75.4c-133.2-40.2-361.8-133.2-507.6-206.1l-266.4-133.2l-464.9,464.9c-354.3,354.3-480,464.9-527.7,464.9c-90.5,0-1130.8-1040.3-1130.8-1130.8c0-47.7,110.6-173.4,464.9-527.7l464.9-464.9l-133.2-266.4c-72.9-145.7-165.8-374.4-206.1-507.6l-75.4-243.8H858.9c-625.7,0-660.9-2.5-708.6-50.3C102.5,866.4,100,831.2,100,110c0-721.2,2.5-756.3,50.3-804.1c47.7-47.8,82.9-50.3,708.6-50.3h660.9l75.4-243.8c40.2-133.2,133.2-361.8,206.1-507.6l133.2-266.3l-464.9-464.9c-354.3-354.3-464.9-479.9-464.9-527.7c0-90.5,1040.3-1130.8,1130.8-1130.8c47.7,0,173.4,110.6,527.7,464.9l467.4,467.4l241.2-125.6c135.7-67.8,361.8-160.8,507.6-206l266.4-85.4v-658.4c0-628.2,2.5-663.4,50.3-711.1c47.7-47.8,82.9-50.3,804.1-50.3c721.2,0,756.3,2.5,804.1,50.3s50.3,82.9,50.3,711.1v658.4l263.8,85.4c145.7,45.2,374.4,138.2,507.6,208.6l243.8,123.1l464.9-464.9c356.8-356.8,482.4-467.4,530.2-467.4c90.5,0,1130.8,1040.3,1130.8,1130.8c0,47.8-113.1,173.4-467.4,530.2l-464.9,464.9l123.1,243.8c70.4,133.2,163.3,361.9,208.6,507.6l85.4,263.8h660.9c625.7,0,660.9,2.5,708.6,50.3S9900-611.2,9900,110c0,721.2-2.5,756.4-50.3,804.1c-47.8,47.7-82.9,50.3-708.6,50.3h-660.9l-85.4,266.4c-45.2,145.7-138.2,371.9-206,507.6l-125.6,241.2l467.4,467.4c354.3,354.3,464.9,480,464.9,527.7c0,90.5-1040.3,1130.8-1130.8,1130.8c-47.8,0-173.4-110.6-527.7-464.9l-464.9-464.9l-266.3,133.2c-145.8,72.9-374.4,165.8-507.6,206.1l-243.8,75.4v660.9c0,625.7-2.5,660.9-50.3,708.6c-47.8,47.7-82.9,50.3-804.1,50.3C4278.8,5010,4243.6,5007.5,4195.9,4959.7z M5429.7,2635.4C6661,2421.8,7563.1,1351.3,7563.1,110c0-1407.2-1155.9-2563.1-2563.1-2563.1S2436.9-1297.2,2436.9,110c0,970,550.3,1857,1419.7,2291.7C4341.6,2642.9,4904.5,2728.4,5429.7,2635.4z"/></g></g>
</svg>