<?xml version="1.0" encoding="utf-8"?>
<!-- Svg Vector Icons : http://www.sfont.cn -->
<!DOCTYPE svg PUBLIC "-//W3C//DTD SVG 1.1//EN" "http://www.w3.org/Graphics/SVG/1.1/DTD/svg11.dtd">
<svg version="1.1" xmlns="http://www.w3.org/2000/svg" xmlns:xlink="http://www.w3.org/1999/xlink" x="0px" y="0px" viewBox="0 0 1000 1000" enable-background="new 0 0 1000 1000" xml:space="preserve">
<metadata> Svg Vector Icons : http://www.sfont.cn </metadata>
<g fill="#eb4f38"><path d="M955,663.3C955,843.7,751.3,990,500,990C248.7,990,45,843.7,45,663.3c0-141.7,125.9-333.7,301.5-409.9c-69.4-34.7-114.8-87.2-114.8-126.8C231.7,62.2,351.8,10,500,10c148.2,0,268.3,52.2,268.3,116.7c0,39.6-45.5,92.1-114.8,126.8C829.1,329.6,955,521.7,955,663.3z M598,411.1l-98,165.2l-98-165.2h-56l108.1,170.2h-86.2v31.9h107.5v47.6H367.8v31.9h107.5v103.6h49.3V692.7h108.1v-31.9H524.6v-47.6h108.1v-31.9h-86.8L654,411.1H598z"/></g>
</svg>