<?xml version="1.0" encoding="utf-8"?>
<!-- Svg Vector Icons : http://www.sfont.cn -->
<!DOCTYPE svg PUBLIC "-//W3C//DTD SVG 1.1//EN" "http://www.w3.org/Graphics/SVG/1.1/DTD/svg11.dtd">
<svg version="1.1" xmlns="http://www.w3.org/2000/svg" xmlns:xlink="http://www.w3.org/1999/xlink"   x="0px" y="0px" viewBox="0 0 1000 1000" enable-background="new 0 0 1000 1000" xml:space="preserve">
<metadata> Svg Vector Icons : http://www.sfont.cn </metadata>
<g fill="#ea8010"><path  d="M558.8,990H186.4c-32.4,0-58.8-26.4-58.8-58.9V68.9c0-32.5,26.4-58.9,58.8-58.9h627.2c32.4,0,58.8,26.3,58.8,58.7v588.3c0,20.5-9.8,45.4-23.8,60.5L620.5,963.1C605.5,979.2,580.8,990,558.8,990z M206,911.6h352.2c1.5-0.3,4.3-1.5,5.4-2.4l227.5-245.1c0.9-1.2,2.7-5.7,2.9-7.7V88.4H206V911.6z"/><path d="M578.4,960.6c-16.2,0-29.4-13.2-29.4-29.4V695.9c0-37.8,30.8-68.5,68.7-68.5h224.4c16.2,0,29.4,13.2,29.4,29.4s-13.2,29.4-29.4,29.4H617.7c-5.4,0-9.9,4.4-9.9,9.7v235.3C607.8,947.4,594.6,960.6,578.4,960.6z"/><path d="M400.8,242.1h25.7c13.5,1.2,20.8,9.8,22.1,25.7c-1.2,14.7-9.2,22.7-23.9,23.9h-23.9v12.9c3.7,4.9,9.2,11.7,16.5,20.2c29.4,36.8,42.9,58.2,40.4,64.3c0,17.2-8,25.7-23.9,25.7c-7.4,0-15.3-5.5-23.9-16.5c-3.7-4.9-6.7-8.6-9.2-11V549c-1.2,13.5-9.2,20.8-23.9,22.1c-15.9-1.2-24.5-8.6-25.7-22.1V396.5c-15.9,39.2-31.9,57-47.8,53.3c-25.7-4.9-29.4-22-11-51.4c0-1.2,0.6-2.5,1.8-3.7c19.6-25.7,36.8-60,51.4-102.9H307c-12.3-1.2-18.4-9.8-18.4-25.7c1.2-14.7,8-22.7,20.2-23.9h42.3v-42.3c-9.8,0-19.6,0.6-29.4,1.8c-17.2,0-26.4-8-27.6-23.9c0-15.9,8.6-24.5,25.7-25.7c45.3-2.4,79.6-6.1,102.9-11c17.1-2.5,27.6,3.1,31.2,16.5c2.5,15.9-4.3,26.4-20.2,31.2c-11,3.7-22,5.5-33.1,5.5L400.8,242.1L400.8,242.1z M516.5,225.6c-4.9,0-10.4-8-16.5-23.9c0,1.2-0.6,0-1.8-3.7c-3.7-7.4-8.6-15.9-14.7-25.7c-4.9-9.8-7.4-16.5-7.4-20.2c0-7.4,3.7-12.9,11-16.5c9.8-3.7,18.4-4.3,25.7-1.8c9.8,4.9,20.2,17.2,31.2,36.8c15.9,29.4,17.1,47.8,3.7,55.1h60.6c-6.1-2.5-7.3-9.2-3.7-20.2c1.2-1.2,3-3.7,5.5-7.4c7.3-11,18.4-28.8,33.1-53.3c7.3-12.2,18.4-15.3,33.1-9.2c11,7.4,14.1,17.8,9.2,31.2c-11,27-23.3,46.6-36.8,58.8h11c22.1,0,33.1,11,33.1,33.1v95.6c1.2,25.7-9.8,38-33.1,36.7h-27.6v106.6c1.2,7.3,4.3,11.7,9.2,12.9h11c9.8,2.5,15.3-16.5,16.5-57c1.2-13.5,9.8-20.2,25.7-20.2c13.5,2.5,20.2,10.4,20.2,23.9c-1.2,40.4-6.1,68-14.7,82.7c-8.6,14.7-23.9,22.1-45.9,22.1h-25.7c-29.4-1.2-44.7-15.3-45.9-42.3V391h-22.1c1.2,85.8-30,143.3-93.7,172.7c-18.4,9.8-33.1,8-44.1-5.5c-7.3-15.9-2.5-28.8,14.7-38.6C487.7,500,512.2,457.1,511,391h-14.7c-22,0-33.1-11-33.1-33.1v-99.2c0-22.1,12.3-33.1,36.8-33.1H516.5z M641.5,282.6c0-6.1-3.1-9.2-9.2-9.2H523.9c-6.1,0-9.2,3.1-9.2,9.2V334c0,6.1,3,9.2,9.2,9.2h108.4c7.4,0,10.4-2.5,9.2-7.4V282.6z"/></g>
</svg>